<?xml version="1.0" encoding="UTF-8"?>
<svg id="Layer_1" data-name="Layer 1" xmlns="http://www.w3.org/2000/svg" xmlns:xlink="http://www.w3.org/1999/xlink" viewBox="0 0 460.01 234.05">
  <defs>
    <style>
      .cls-1 {
        clip-path: url(#clippath-6);
      }

      .cls-2 {
        clip-path: url(#clippath-7);
      }

      .cls-3 {
        clip-path: url(#clippath-17);
      }

      .cls-4 {
        clip-path: url(#clippath-15);
      }

      .cls-5 {
        clip-path: url(#clippath-18);
      }

      .cls-6 {
        clip-path: url(#clippath-4);
      }

      .cls-7 {
        clip-path: url(#clippath-9);
      }

      .cls-8 {
        clip-path: url(#clippath-10);
      }

      .cls-9 {
        fill: #fff;
      }

      .cls-10 {
        clip-path: url(#clippath-11);
      }

      .cls-11 {
        clip-path: url(#clippath-1);
      }

      .cls-12 {
        clip-path: url(#clippath-5);
      }

      .cls-13 {
        clip-path: url(#clippath-20);
      }

      .cls-14 {
        clip-path: url(#clippath-8);
      }

      .cls-15 {
        clip-path: url(#clippath-3);
      }

      .cls-16 {
        clip-path: url(#clippath-12);
      }

      .cls-17 {
        clip-path: url(#clippath-14);
      }

      .cls-18 {
        clip-path: url(#clippath-19);
      }

      .cls-19 {
        clip-path: url(#clippath-16);
      }

      .cls-20 {
        clip-path: url(#clippath-2);
      }

      .cls-21 {
        clip-path: url(#clippath-13);
      }

      .cls-22 {
        clip-path: url(#clippath);
      }
    </style>
    <clipPath id="clippath">
      <path class="cls-9" d="M230.01,49.9h0c.52.05,1.03.28,1.43.69.33.33.65.8.92,1.28.31.56.35,1.24.12,1.84-.48,1.29-1.44,3.95-2.47,6.02v.02s0,0,0-.01c0,0,0,0,0,.01v-.02c-1.04-2.07-1.99-4.73-2.47-6.02-.22-.6-.19-1.28.12-1.84.27-.48.59-.95.92-1.28.4-.4.91-.63,1.43-.68h0s0,0,0,0,0,0,0,0M331.82,14.53c-24.6,11.72-47.94,14.46-76.08,19.47-6.69,1.19-14.3,3.69-19.59,6.47,3.42,2.49,3.75,7.27,3.75,7.27,0,0-2.52,1.01-5.01,3.04.3-.76,2.04-4.11,2.04-4.11l-4.17,2.04-2.76-1.34-2.76,1.34-4.17-2.04s1.74,3.35,2.04,4.11c-2.49-2.03-5.01-3.04-5.01-3.04,0,0,.33-4.86,3.83-7.33-5.31-2.76-13.04-5.23-19.68-6.41-28.15-5.01-51.48-7.75-76.08-19.47-11.41-5.44-16.94-10.81-19.61-14.53,1.12,7.25,4.92,16.67,15,24.82,13.14,10.63,40.05,16.74,74.21,20.69-7.77.93-38.37-.76-65.16-6.7,8.96,11.78,24.49,16.2,39.15,15.89,20.51-.43,27.87-1.92,29.87-2.45-3.58,1.05-22.17,6.23-45.27,7.06,10.27,7.54,24.09,8.8,36.23,4.46,7.75-2.77,14.87-5.33,14.87-5.33,0,0-10.91,7.96-27.99,15.38,1.24.59,2.5,1.16,3.77,1.71,8.14,3.52,17.68,1.22,23.84-4.95,5.14-5.16,6.6-6.37,6.6-6.37,0,0-4.22,7.41-12.17,17.49.57.14,1.12.36,1.7.41,7.77.7,12.76-2.54,15.76-5.78,2.75-2.97,3.82-5.94,3.82-5.88,0,.15.02.37.04.63h-.19c-1.94,10.09-7.16,18.79-13.5,25.95,4.72.9,8.86-.59,10.74-4.26-1.3,4.4-1.63,9.32-1,14.05,4.01-1.71,6.28-5.71,7.41-11.99.31,8.71,1.35,16.22,3.77,20.05,2.39-3.83,3.35-11.34,3.59-20.05,1.18,6.28,3.49,10.28,7.52,11.99.59-4.73.22-9.65-1.13-14.05,1.91,3.67,6.07,5.16,10.78,4.26-6.4-7.15-11.43-15.86-13.48-25.95h-.2c.01-.25.03-.47.03-.63,0-.07,1.16,2.99,3.74,6.04,3.09,3.66,8.22,7.32,15.84,5.61.57-.13,1.13-.27,1.7-.41-7.95-10.08-12.35-17.78-12.35-17.78,0,0,1.64,1.51,6.78,6.67,6.16,6.17,15.69,8.47,23.84,4.95,1.27-.55,2.53-1.12,3.77-1.71-17.08-7.42-27.99-15.38-27.99-15.38,0,0,7.13,2.55,14.88,5.33,12.14,4.34,25.96,3.08,36.23-4.46-23.09-.83-41.69-6-45.27-7.06,2,.53,9.36,2.02,29.87,2.45,14.66.31,30.18-4.11,39.15-15.89-26.79,5.94-57.4,7.63-65.16,6.7,34.16-3.96,61.07-10.06,74.21-20.69,10.09-8.16,13.89-17.57,15-24.82-2.66,3.72-8.19,9.09-19.61,14.53"/>
    </clipPath>
    <clipPath id="clippath-1">
      <polygon class="cls-9" points="0 127.69 0 194.46 47.99 194.46 47.99 181.21 14.69 181.21 14.69 127.69 0 127.69"/>
    </clipPath>
    <clipPath id="clippath-2">
      <polygon class="cls-9" points="59.05 127.69 59.05 194.46 109.8 194.46 109.8 181.4 73.55 181.4 73.55 167.37 105.03 167.37 105.03 154.3 73.55 154.3 73.55 140.76 109.33 140.76 109.33 127.69 59.05 127.69"/>
    </clipPath>
    <clipPath id="clippath-3">
      <path class="cls-9" d="M169.33,129.26c-4.26,1.81-7.92,4.29-10.97,7.44-3.05,3.15-5.44,6.81-7.16,10.97-1.72,4.17-2.58,8.63-2.58,13.4v.19c0,4.77.86,9.25,2.58,13.45,1.72,4.2,4.1,7.84,7.16,10.92,3.05,3.09,6.68,5.52,10.87,7.3,4.2,1.78,8.74,2.67,13.64,2.67,3.24,0,6.17-.27,8.78-.81,2.61-.54,5.01-1.34,7.2-2.39,2.19-1.05,4.21-2.3,6.06-3.77,1.84-1.46,3.63-3.11,5.34-4.96l-9.35-9.45c-2.61,2.42-5.23,4.33-7.87,5.72-2.64,1.4-5.87,2.1-9.68,2.1-2.86,0-5.49-.56-7.87-1.67-2.39-1.11-4.42-2.62-6.11-4.53s-3.01-4.13-3.96-6.68c-.95-2.54-1.43-5.25-1.43-8.11v-.19c0-2.86.48-5.55,1.43-8.06.95-2.51,2.29-4.72,4.01-6.63,1.72-1.91,3.77-3.4,6.15-4.48,2.39-1.08,4.98-1.62,7.77-1.62,3.37,0,6.41.67,9.11,2,2.7,1.33,5.36,3.18,7.96,5.53l9.35-10.78c-1.53-1.53-3.18-2.92-4.96-4.2-1.78-1.27-3.72-2.35-5.82-3.24-2.1-.89-4.43-1.59-7.01-2.1-2.58-.51-5.42-.76-8.54-.76-5.15,0-9.86.91-14.12,2.72"/>
    </clipPath>
    <clipPath id="clippath-4">
      <path class="cls-9" d="M251.47,144.86l8.87,21.66h-17.75l8.87-21.66ZM244.89,127.21l-28.62,67.25h14.98l6.11-14.98h28.24l6.11,14.98h15.36l-28.62-67.25h-13.54Z"/>
    </clipPath>
    <clipPath id="clippath-5">
      <polygon class="cls-9" points="297.35 127.69 297.35 194.46 312.05 194.46 312.05 168.61 343.91 168.61 343.91 155.35 312.05 155.35 312.05 140.95 348.2 140.95 348.2 127.69 297.35 127.69"/>
    </clipPath>
    <clipPath id="clippath-6">
      <rect class="cls-9" x="360.6" y="127.69" width="14.69" height="66.78"/>
    </clipPath>
    <clipPath id="clippath-7">
      <path class="cls-9" d="M416.46,180.39c-2.45-1.11-4.58-2.62-6.39-4.53s-3.21-4.13-4.2-6.68c-.99-2.54-1.48-5.25-1.48-8.11v-.19c0-2.86.49-5.55,1.48-8.06.99-2.51,2.35-4.72,4.1-6.63,1.75-1.91,3.85-3.4,6.3-4.48,2.45-1.08,5.17-1.62,8.16-1.62s5.63.56,8.11,1.67c2.48,1.11,4.63,2.62,6.44,4.53,1.81,1.91,3.21,4.14,4.2,6.68.99,2.54,1.48,5.25,1.48,8.11v.19c0,2.86-.49,5.55-1.48,8.06-.99,2.51-2.35,4.72-4.1,6.63-1.75,1.91-3.86,3.4-6.34,4.48-2.48,1.08-5.18,1.62-8.11,1.62s-5.71-.56-8.16-1.67M410.35,129.26c-4.36,1.81-8.11,4.29-11.26,7.44-3.15,3.15-5.61,6.81-7.39,10.97-1.78,4.17-2.67,8.63-2.67,13.4v.19c0,4.77.87,9.24,2.62,13.4,1.75,4.17,4.2,7.79,7.35,10.87,3.15,3.09,6.88,5.53,11.21,7.35,4.33,1.81,9.06,2.72,14.22,2.72s9.9-.91,14.26-2.72c4.36-1.81,8.11-4.29,11.26-7.44,3.15-3.15,5.61-6.8,7.39-10.97,1.78-4.16,2.67-8.63,2.67-13.4v-.19c0-4.77-.87-9.24-2.62-13.4-1.75-4.17-4.2-7.79-7.35-10.88-3.15-3.08-6.89-5.53-11.21-7.35-4.33-1.81-9.06-2.72-14.21-2.72s-9.91.91-14.26,2.72"/>
    </clipPath>
    <clipPath id="clippath-8">
      <polygon class="cls-9" points="69.94 221.23 69.94 222.64 74.16 222.64 74.16 233.9 75.87 233.9 75.87 222.64 80.09 222.64 80.09 221.23 69.94 221.23"/>
    </clipPath>
    <clipPath id="clippath-9">
      <path class="cls-9" d="M97.99,223.53l1.93,5.11h-3.85l1.93-5.11ZM97.25,221.08l-5.04,12.82h1.78l1.56-3.85h4.89l1.56,3.85h1.78l-5.04-12.82h-1.48Z"/>
    </clipPath>
    <clipPath id="clippath-10">
      <path class="cls-9" d="M117.81,222.12c-.69.69-1.04,1.51-1.04,2.45,0,.74.22,1.33.67,1.78.3.3.64.52,1.04.67.54.25,1.26.57,2.15.96.79.35,1.43.65,1.93.89.54.25.94.5,1.18.74.3.3.45.67.45,1.11,0,.4-.2.79-.59,1.18-.49.49-1.26.74-2.3.74-1.14,0-1.98-.27-2.52-.82-.4-.39-.59-1.04-.59-1.93h-1.71c0,1.24.32,2.18.96,2.82.89.89,2.15,1.33,3.78,1.33s2.89-.37,3.63-1.11c.69-.69,1.04-1.53,1.04-2.52,0-.74-.27-1.38-.81-1.93-.35-.35-.72-.59-1.11-.74-1.43-.64-2.72-1.21-3.85-1.71-.64-.24-1.09-.49-1.33-.74-.2-.2-.3-.52-.3-.96s.17-.84.52-1.19c.39-.4,1.11-.59,2.15-.59.94,0,1.63.22,2.07.67.4.39.59.89.59,1.48h1.7c0-.94-.35-1.75-1.04-2.44-.79-.79-1.95-1.18-3.48-1.18-1.43,0-2.49.35-3.18,1.04"/>
    </clipPath>
    <clipPath id="clippath-11">
      <polygon class="cls-9" points="138.67 221.23 138.67 222.64 142.89 222.64 142.89 233.9 144.6 233.9 144.6 222.64 148.82 222.64 148.82 221.23 138.67 221.23"/>
    </clipPath>
    <clipPath id="clippath-12">
      <polygon class="cls-9" points="161.98 221.23 161.98 233.9 170.5 233.9 170.5 232.49 163.68 232.49 163.68 227.97 169.68 227.97 169.68 226.57 163.68 226.57 163.68 222.64 170.13 222.64 170.13 221.23 161.98 221.23"/>
    </clipPath>
    <clipPath id="clippath-13">
      <path class="cls-9" d="M204.14,231.45c-.84-.84-1.26-2.15-1.26-3.93s.42-3.09,1.26-3.93c.74-.74,1.58-1.11,2.52-1.11s1.78.37,2.52,1.11c.84.84,1.26,2.15,1.26,3.93s-.42,3.09-1.26,3.93c-.74.74-1.58,1.11-2.52,1.11s-1.78-.37-2.52-1.11M202.88,222.64c-1.18,1.19-1.78,2.82-1.78,4.89s.59,3.71,1.78,4.89c1.04,1.04,2.3,1.56,3.78,1.56s2.74-.52,3.78-1.56c1.19-1.18,1.78-2.82,1.78-4.89s-.59-3.7-1.78-4.89c-1.04-1.04-2.3-1.55-3.78-1.55s-2.74.52-3.78,1.55"/>
    </clipPath>
    <clipPath id="clippath-14">
      <polygon class="cls-9" points="226.26 221.23 226.26 233.9 227.97 233.9 227.97 228.2 233.3 228.2 233.3 226.79 227.97 226.79 227.97 222.64 234.78 222.64 234.78 221.23 226.26 221.23"/>
    </clipPath>
    <clipPath id="clippath-15">
      <polygon class="cls-9" points="265.25 221.23 265.25 233.9 273.76 233.9 273.76 232.49 266.95 232.49 266.95 221.23 265.25 221.23"/>
    </clipPath>
    <clipPath id="clippath-16">
      <polygon class="cls-9" points="286.62 221.23 286.62 233.9 295.14 233.9 295.14 232.49 288.33 232.49 288.33 227.97 294.33 227.97 294.33 226.57 288.33 226.57 288.33 222.64 294.77 222.64 294.77 221.23 286.62 221.23"/>
    </clipPath>
    <clipPath id="clippath-17">
      <path class="cls-9" d="M310.37,222.64c-1.14,1.14-1.7,2.79-1.7,4.96s.62,3.73,1.85,4.96c.99.99,2.27,1.48,3.85,1.48,1.28,0,2.34-.42,3.18-1.26l.45,1.26h1.26v-6.52h-3.85v1.41h2.15v1.19c-.1.59-.42,1.16-.96,1.7-.54.55-1.23.82-2.07.82-1.14,0-2.02-.32-2.67-.96-.94-.94-1.41-2.3-1.41-4.08,0-1.88.45-3.26,1.33-4.15.64-.64,1.43-.96,2.37-.96s1.68.27,2.22.82c.54.54.84,1.24.89,2.07h1.78c-.05-1.14-.47-2.1-1.26-2.89-.94-.94-2.15-1.4-3.63-1.4s-2.74.52-3.78,1.55"/>
    </clipPath>
    <clipPath id="clippath-18">
      <path class="cls-9" d="M337.75,223.53l1.93,5.11h-3.85l1.93-5.11ZM337.01,221.08l-5.04,12.82h1.78l1.55-3.85h4.89l1.56,3.85h1.78l-5.04-12.82h-1.48Z"/>
    </clipPath>
    <clipPath id="clippath-19">
      <path class="cls-9" d="M358.02,222.49c-1.23,1.24-1.85,2.94-1.85,5.11s.62,3.8,1.85,5.04c.94.94,2.15,1.41,3.63,1.41,1.58,0,2.79-.42,3.63-1.26.94-.94,1.43-2.25,1.48-3.93h-1.78c0,1.29-.34,2.27-1.04,2.96-.54.55-1.31.82-2.3.82s-1.73-.32-2.37-.96c-.89-.89-1.33-2.25-1.33-4.08s.44-3.19,1.33-4.07c.69-.69,1.48-1.04,2.37-1.04.84,0,1.56.3,2.15.89.54.54.86,1.33.96,2.37h1.78c-.05-1.38-.52-2.52-1.41-3.41-.84-.84-2-1.26-3.48-1.26s-2.69.47-3.63,1.4"/>
    </clipPath>
    <clipPath id="clippath-20">
      <polygon class="cls-9" points="388.29 221.23 384.66 227.01 381.03 221.23 379.25 221.23 383.85 228.27 383.85 233.9 385.55 233.9 385.55 228.27 390.07 221.23 388.29 221.23"/>
    </clipPath>
  </defs>
  <g>
    <path class="cls-9" d="M230.01,49.9h0c.52.05,1.03.28,1.43.69.33.33.65.8.92,1.28.31.56.35,1.24.12,1.84-.48,1.29-1.44,3.95-2.47,6.02v.02s0,0,0-.01c0,0,0,0,0,.01v-.02c-1.04-2.07-1.99-4.73-2.47-6.02-.22-.6-.19-1.28.12-1.84.27-.48.59-.95.92-1.28.4-.4.91-.63,1.43-.68h0s0,0,0,0,0,0,0,0M331.82,14.53c-24.6,11.72-47.94,14.46-76.08,19.47-6.69,1.19-14.3,3.69-19.59,6.47,3.42,2.49,3.75,7.27,3.75,7.27,0,0-2.52,1.01-5.01,3.04.3-.76,2.04-4.11,2.04-4.11l-4.17,2.04-2.76-1.34-2.76,1.34-4.17-2.04s1.74,3.35,2.04,4.11c-2.49-2.03-5.01-3.04-5.01-3.04,0,0,.33-4.86,3.83-7.33-5.31-2.76-13.04-5.23-19.68-6.41-28.15-5.01-51.48-7.75-76.08-19.47-11.41-5.44-16.94-10.81-19.61-14.53,1.12,7.25,4.92,16.67,15,24.82,13.14,10.63,40.05,16.74,74.21,20.69-7.77.93-38.37-.76-65.16-6.7,8.96,11.78,24.49,16.2,39.15,15.89,20.51-.43,27.87-1.92,29.87-2.45-3.58,1.05-22.17,6.23-45.27,7.06,10.27,7.54,24.09,8.8,36.23,4.46,7.75-2.77,14.87-5.33,14.87-5.33,0,0-10.91,7.96-27.99,15.38,1.24.59,2.5,1.16,3.77,1.71,8.14,3.52,17.68,1.22,23.84-4.95,5.14-5.16,6.6-6.37,6.6-6.37,0,0-4.22,7.41-12.17,17.49.57.14,1.12.36,1.7.41,7.77.7,12.76-2.54,15.76-5.78,2.75-2.97,3.82-5.94,3.82-5.88,0,.15.02.37.04.63h-.19c-1.94,10.09-7.16,18.79-13.5,25.95,4.72.9,8.86-.59,10.74-4.26-1.3,4.4-1.63,9.32-1,14.05,4.01-1.71,6.28-5.71,7.41-11.99.31,8.71,1.35,16.22,3.77,20.05,2.39-3.83,3.35-11.34,3.59-20.05,1.18,6.28,3.49,10.28,7.52,11.99.59-4.73.22-9.65-1.13-14.05,1.91,3.67,6.07,5.16,10.78,4.26-6.4-7.15-11.43-15.86-13.48-25.95h-.2c.01-.25.03-.47.03-.63,0-.07,1.16,2.99,3.74,6.04,3.09,3.66,8.22,7.32,15.84,5.61.57-.13,1.13-.27,1.7-.41-7.95-10.08-12.35-17.78-12.35-17.78,0,0,1.64,1.51,6.78,6.67,6.16,6.17,15.69,8.47,23.84,4.95,1.27-.55,2.53-1.12,3.77-1.71-17.08-7.42-27.99-15.38-27.99-15.38,0,0,7.13,2.55,14.88,5.33,12.14,4.34,25.96,3.08,36.23-4.46-23.09-.83-41.69-6-45.27-7.06,2,.53,9.36,2.02,29.87,2.45,14.66.31,30.18-4.11,39.15-15.89-26.79,5.94-57.4,7.63-65.16,6.7,34.16-3.96,61.07-10.06,74.21-20.69,10.09-8.16,13.89-17.57,15-24.82-2.66,3.72-8.19,9.09-19.61,14.53"/>
    <g class="cls-22">
      <rect class="cls-9" x="96.24" y="-53.79" width="267.52" height="222.44" transform="translate(2.77 125) rotate(-30.58)"/>
    </g>
  </g>
  <g>
    <polygon class="cls-9" points="0 127.69 0 194.46 47.99 194.46 47.99 181.21 14.69 181.21 14.69 127.69 0 127.69"/>
    <g class="cls-11">
      <rect class="cls-9" x="-13.65" y="120.12" width="75.29" height="81.9" transform="translate(-78.61 34.61) rotate(-30.58)"/>
    </g>
  </g>
  <g>
    <polygon class="cls-9" points="59.05 127.69 59.05 194.46 109.8 194.46 109.8 181.4 73.55 181.4 73.55 167.37 105.03 167.37 105.03 154.3 73.55 154.3 73.55 140.76 109.33 140.76 109.33 127.69 59.05 127.69"/>
    <g class="cls-20">
      <rect class="cls-9" x="45.6" y="119.42" width="77.67" height="83.31" transform="translate(-70.2 65.35) rotate(-30.58)"/>
    </g>
  </g>
  <g>
    <path class="cls-9" d="M169.33,129.26c-4.26,1.81-7.92,4.29-10.97,7.44-3.05,3.15-5.44,6.81-7.16,10.97-1.72,4.17-2.58,8.63-2.58,13.4v.19c0,4.77.86,9.25,2.58,13.45,1.72,4.2,4.1,7.84,7.16,10.92,3.05,3.09,6.68,5.52,10.87,7.3,4.2,1.78,8.74,2.67,13.64,2.67,3.24,0,6.17-.27,8.78-.81,2.61-.54,5.01-1.34,7.2-2.39,2.19-1.05,4.21-2.3,6.06-3.77,1.84-1.46,3.63-3.11,5.34-4.96l-9.35-9.45c-2.61,2.42-5.23,4.33-7.87,5.72-2.64,1.4-5.87,2.1-9.68,2.1-2.86,0-5.49-.56-7.87-1.67-2.39-1.11-4.42-2.62-6.11-4.53s-3.01-4.13-3.96-6.68c-.95-2.54-1.43-5.25-1.43-8.11v-.19c0-2.86.48-5.55,1.43-8.06.95-2.51,2.29-4.72,4.01-6.63,1.72-1.91,3.77-3.4,6.15-4.48,2.39-1.08,4.98-1.62,7.77-1.62,3.37,0,6.41.67,9.11,2,2.7,1.33,5.36,3.18,7.96,5.53l9.35-10.78c-1.53-1.53-3.18-2.92-4.96-4.2-1.78-1.27-3.72-2.35-5.82-3.24-2.1-.89-4.43-1.59-7.01-2.1-2.58-.51-5.42-.76-8.54-.76-5.15,0-9.86.91-14.12,2.72"/>
    <g class="cls-15">
      <rect class="cls-9" x="135.35" y="115.67" width="88.19" height="90.81" transform="translate(-56.99 113.69) rotate(-30.58)"/>
    </g>
  </g>
  <g>
    <path class="cls-9" d="M251.47,144.86l8.87,21.66h-17.75l8.87-21.66ZM244.89,127.21l-28.62,67.25h14.98l6.11-14.98h28.24l6.11,14.98h15.36l-28.62-67.25h-13.54Z"/>
    <g class="cls-6">
      <rect class="cls-9" x="204.08" y="113.88" width="95.15" height="93.91" transform="translate(-46.82 150.39) rotate(-30.58)"/>
    </g>
  </g>
  <g>
    <polygon class="cls-9" points="297.35 127.69 297.35 194.46 312.05 194.46 312.05 168.61 343.91 168.61 343.91 155.35 312.05 155.35 312.05 140.95 348.2 140.95 348.2 127.69 297.35 127.69"/>
    <g class="cls-12">
      <rect class="cls-9" x="283.9" y="119.4" width="77.75" height="83.36" transform="translate(-37.05 186.61) rotate(-30.58)"/>
    </g>
  </g>
  <g>
    <rect class="cls-9" x="360.6" y="127.69" width="14.69" height="66.78"/>
    <g class="cls-1">
      <rect class="cls-9" x="344.64" y="128.59" width="46.62" height="64.96" transform="translate(-30.77 209.59) rotate(-30.58)"/>
    </g>
  </g>
  <g>
    <path class="cls-9" d="M416.46,180.39c-2.45-1.11-4.58-2.62-6.39-4.53s-3.21-4.13-4.2-6.68c-.99-2.54-1.48-5.25-1.48-8.11v-.19c0-2.86.49-5.55,1.48-8.06.99-2.51,2.35-4.72,4.1-6.63,1.75-1.91,3.85-3.4,6.3-4.48,2.45-1.08,5.17-1.62,8.16-1.62s5.63.56,8.11,1.67c2.48,1.11,4.63,2.62,6.44,4.53,1.81,1.91,3.21,4.14,4.2,6.68.99,2.54,1.48,5.25,1.48,8.11v.19c0,2.86-.49,5.55-1.48,8.06-.99,2.51-2.35,4.72-4.1,6.63-1.75,1.91-3.86,3.4-6.34,4.48-2.48,1.08-5.18,1.62-8.11,1.62s-5.71-.56-8.16-1.67M410.35,129.26c-4.36,1.81-8.11,4.29-11.26,7.44-3.15,3.15-5.61,6.81-7.39,10.97-1.78,4.17-2.67,8.63-2.67,13.4v.19c0,4.77.87,9.24,2.62,13.4,1.75,4.17,4.2,7.79,7.35,10.87,3.15,3.09,6.88,5.53,11.21,7.35,4.33,1.81,9.06,2.72,14.22,2.72s9.9-.91,14.26-2.72c4.36-1.81,8.11-4.29,11.26-7.44,3.15-3.15,5.61-6.8,7.39-10.97,1.78-4.16,2.67-8.63,2.67-13.4v-.19c0-4.77-.87-9.24-2.62-13.4-1.75-4.17-4.2-7.79-7.35-10.88-3.15-3.08-6.89-5.53-11.21-7.35-4.33-1.81-9.06-2.72-14.21-2.72s-9.91.91-14.26,2.72"/>
    <g class="cls-2">
      <rect class="cls-9" x="376.4" y="113.29" width="96.24" height="95.57" transform="translate(-22.9 238.37) rotate(-30.58)"/>
    </g>
  </g>
  <g>
    <polygon class="cls-9" points="69.94 221.23 69.94 222.64 74.16 222.64 74.16 233.9 75.87 233.9 75.87 222.64 80.09 222.64 80.09 221.23 69.94 221.23"/>
    <g class="cls-14">
      <rect class="cls-9" x="66.91" y="219.73" width="16.22" height="15.67" transform="translate(-152.89 153.58) rotate(-53.77)"/>
    </g>
  </g>
  <g>
    <path class="cls-9" d="M97.99,223.53l1.93,5.11h-3.85l1.93-5.11ZM97.25,221.08l-5.04,12.82h1.78l1.56-3.85h4.89l1.56,3.85h1.78l-5.04-12.82h-1.48Z"/>
    <g class="cls-7">
      <rect class="cls-9" x="89.4" y="219.04" width="17.17" height="16.9" transform="translate(-143.43 172.08) rotate(-53.77)"/>
    </g>
  </g>
  <g>
    <path class="cls-9" d="M117.81,222.12c-.69.69-1.04,1.51-1.04,2.45,0,.74.22,1.33.67,1.78.3.3.64.52,1.04.67.54.25,1.26.57,2.15.96.79.35,1.43.65,1.93.89.54.25.94.5,1.18.74.3.3.45.67.45,1.11,0,.4-.2.79-.59,1.18-.49.49-1.26.74-2.3.74-1.14,0-1.98-.27-2.52-.82-.4-.39-.59-1.04-.59-1.93h-1.71c0,1.24.32,2.18.96,2.82.89.89,2.15,1.33,3.78,1.33s2.89-.37,3.63-1.11c.69-.69,1.04-1.53,1.04-2.52,0-.74-.27-1.38-.81-1.93-.35-.35-.72-.59-1.11-.74-1.43-.64-2.72-1.21-3.85-1.71-.64-.24-1.09-.49-1.33-.74-.2-.2-.3-.52-.3-.96s.17-.84.52-1.19c.39-.4,1.11-.59,2.15-.59.94,0,1.63.22,2.07.67.4.39.59.89.59,1.48h1.7c0-.94-.35-1.75-1.04-2.44-.79-.79-1.95-1.18-3.48-1.18-1.43,0-2.49.35-3.18,1.04"/>
    <g class="cls-8">
      <rect class="cls-9" x="113.17" y="219.94" width="16.02" height="15.25" transform="translate(-134.01 190.82) rotate(-53.77)"/>
    </g>
  </g>
  <g>
    <polygon class="cls-9" points="138.67 221.23 138.67 222.64 142.89 222.64 142.89 233.9 144.6 233.9 144.6 222.64 148.82 222.64 148.82 221.23 138.67 221.23"/>
    <g class="cls-10">
      <rect class="cls-9" x="135.64" y="219.73" width="16.22" height="15.67" transform="translate(-124.78 209.02) rotate(-53.77)"/>
    </g>
  </g>
  <g>
    <polygon class="cls-9" points="161.98 221.23 161.98 233.9 170.5 233.9 170.5 232.49 163.68 232.49 163.68 227.97 169.68 227.97 169.68 226.57 163.68 226.57 163.68 222.64 170.13 222.64 170.13 221.23 161.98 221.23"/>
    <g class="cls-16">
      <rect class="cls-9" x="158.61" y="220.39" width="15.25" height="14.36" transform="translate(-115.58 227.16) rotate(-53.77)"/>
    </g>
  </g>
  <g>
    <path class="cls-9" d="M204.14,231.45c-.84-.84-1.26-2.15-1.26-3.93s.42-3.09,1.26-3.93c.74-.74,1.58-1.11,2.52-1.11s1.78.37,2.52,1.11c.84.84,1.26,2.15,1.26,3.93s-.42,3.09-1.26,3.93c-.74.74-1.58,1.11-2.52,1.11s-1.78-.37-2.52-1.11M202.88,222.64c-1.18,1.19-1.78,2.82-1.78,4.89s.59,3.71,1.78,4.89c1.04,1.04,2.3,1.56,3.78,1.56s2.74-.52,3.78-1.56c1.19-1.18,1.78-2.82,1.78-4.89s-.59-3.7-1.78-4.89c-1.04-1.04-2.3-1.55-3.78-1.55s-2.74.52-3.78,1.55"/>
    <g class="cls-21">
      <rect class="cls-9" x="198.18" y="219.24" width="16.96" height="16.58" transform="translate(-99.02 259.76) rotate(-53.77)"/>
    </g>
  </g>
  <g>
    <polygon class="cls-9" points="226.26 221.23 226.26 233.9 227.97 233.9 227.97 228.2 233.3 228.2 233.3 226.79 227.97 226.79 227.97 222.64 234.78 222.64 234.78 221.23 226.26 221.23"/>
    <g class="cls-17">
      <rect class="cls-9" x="222.9" y="220.39" width="15.25" height="14.36" transform="translate(-89.29 279.02) rotate(-53.77)"/>
    </g>
  </g>
  <g>
    <polygon class="cls-9" points="265.25 221.23 265.25 233.9 273.76 233.9 273.76 232.49 266.95 232.49 266.95 221.23 265.25 221.23"/>
    <g class="cls-4">
      <rect class="cls-9" x="261.88" y="220.39" width="15.25" height="14.36" transform="translate(-73.35 310.46) rotate(-53.77)"/>
    </g>
  </g>
  <g>
    <polygon class="cls-9" points="286.62 221.23 286.62 233.9 295.14 233.9 295.14 232.49 288.33 232.49 288.33 227.97 294.33 227.97 294.33 226.57 288.33 226.57 288.33 222.64 294.77 222.64 294.77 221.23 286.62 221.23"/>
    <g class="cls-19">
      <rect class="cls-9" x="283.25" y="220.39" width="15.25" height="14.36" transform="translate(-64.6 327.71) rotate(-53.77)"/>
    </g>
  </g>
  <g>
    <path class="cls-9" d="M310.37,222.64c-1.14,1.14-1.7,2.79-1.7,4.96s.62,3.73,1.85,4.96c.99.99,2.27,1.48,3.85,1.48,1.28,0,2.34-.42,3.18-1.26l.45,1.26h1.26v-6.52h-3.85v1.41h2.15v1.19c-.1.59-.42,1.16-.96,1.7-.54.55-1.23.82-2.07.82-1.14,0-2.02-.32-2.67-.96-.94-.94-1.41-2.3-1.41-4.08,0-1.88.45-3.26,1.33-4.15.64-.64,1.43-.96,2.37-.96s1.68.27,2.22.82c.54.54.84,1.24.89,2.07h1.78c-.05-1.14-.47-2.1-1.26-2.89-.94-.94-2.15-1.4-3.63-1.4s-2.74.52-3.78,1.55"/>
    <g class="cls-3">
      <rect class="cls-9" x="305.61" y="219.46" width="16.72" height="16.21" transform="translate(-55.16 346.33) rotate(-53.77)"/>
    </g>
  </g>
  <g>
    <path class="cls-9" d="M337.75,223.53l1.93,5.11h-3.85l1.93-5.11ZM337.01,221.08l-5.04,12.82h1.78l1.55-3.85h4.89l1.56,3.85h1.78l-5.04-12.82h-1.48Z"/>
    <g class="cls-5">
      <rect class="cls-9" x="329.17" y="219.04" width="17.17" height="16.9" transform="translate(-45.38 365.49) rotate(-53.77)"/>
    </g>
  </g>
  <g>
    <path class="cls-9" d="M358.02,222.49c-1.23,1.24-1.85,2.94-1.85,5.11s.62,3.8,1.85,5.04c.94.94,2.15,1.41,3.63,1.41,1.58,0,2.79-.42,3.63-1.26.94-.94,1.43-2.25,1.48-3.93h-1.78c0,1.29-.34,2.27-1.04,2.96-.54.55-1.31.82-2.3.82s-1.73-.32-2.37-.96c-.89-.89-1.33-2.25-1.33-4.08s.44-3.19,1.33-4.07c.69-.69,1.48-1.04,2.37-1.04.84,0,1.56.3,2.15.89.54.54.86,1.33.96,2.37h1.78c-.05-1.38-.52-2.52-1.41-3.41-.84-.84-2-1.26-3.48-1.26s-2.69.47-3.63,1.4"/>
    <g class="cls-18">
      <rect class="cls-9" x="353.11" y="219.46" width="16.72" height="16.21" transform="translate(-35.74 384.64) rotate(-53.77)"/>
    </g>
  </g>
  <g>
    <polygon class="cls-9" points="388.29 221.23 384.66 227.01 381.03 221.23 379.25 221.23 383.85 228.27 383.85 233.9 385.55 233.9 385.55 228.27 390.07 221.23 388.29 221.23"/>
    <g class="cls-13">
      <rect class="cls-9" x="376.35" y="219.46" width="16.61" height="16.21" transform="translate(-26.25 403.35) rotate(-53.77)"/>
    </g>
  </g>
</svg>